<?xml version="1.0" encoding="UTF-8" standalone="no"?><!DOCTYPE svg PUBLIC "-//W3C//DTD SVG 1.1//EN" "http://www.w3.org/Graphics/SVG/1.1/DTD/svg11.dtd"><svg width="100%" height="100%" viewBox="0 0 299 132" version="1.1" xmlns="http://www.w3.org/2000/svg" xmlns:xlink="http://www.w3.org/1999/xlink" xml:space="preserve" xmlns:serif="http://www.serif.com/" style="fill-rule:evenodd;clip-rule:evenodd;stroke-linejoin:round;stroke-miterlimit:2;"><rect x="-0" y="-0" width="298.974" height="131.735" style="fill:#ebebeb;"/><path d="M35.487,100.777l-15.546,-52.364l2.319,-0l14.59,49.364l0.273,-0l14.727,-49.364l2.182,-0l14.728,49.364l0.272,-0l14.591,-49.364l2.318,-0l-15.545,52.364l-3,-0l-14.318,-48.273l-0.273,-0l-14.318,48.273l-3,-0Z" style="fill-rule:nonzero;"/><path d="M116.078,121.504c-4.387,-0 -8.239,-0.875 -11.557,-2.625c-3.318,-1.75 -5.648,-4.375 -6.989,-7.875l2.046,-0.818c1.182,3.091 3.244,5.386 6.187,6.886c2.943,1.5 6.381,2.25 10.313,2.25c5.454,-0 9.704,-1.438 12.75,-4.313c3.045,-2.875 4.568,-7.255 4.568,-13.142l-0,-14.181l-0.273,-0c-1.363,4.363 -3.687,7.636 -6.971,9.818c-3.284,2.182 -6.87,3.273 -10.756,3.273c-4.091,-0 -7.648,-1.103 -10.671,-3.307c-3.022,-2.205 -5.363,-5.262 -7.022,-9.171c-1.659,-3.909 -2.489,-8.432 -2.489,-13.568c0,-5.182 0.818,-9.818 2.455,-13.909c1.636,-4.091 3.966,-7.318 6.988,-9.682c3.023,-2.363 6.603,-3.545 10.739,-3.545c4.227,-0 7.881,1.272 10.96,3.818c3.08,2.545 5.335,6 6.767,10.364l0.273,-0l-0,-13.364l2.182,-0l-0,53.454c-0,6.455 -1.739,11.341 -5.216,14.66c-3.477,3.318 -8.239,4.977 -14.284,4.977Zm-0.682,-22.909c5.454,-0 9.818,-2.142 13.091,-6.426c3.273,-4.285 4.909,-10.097 4.909,-17.438c-0,-4.727 -0.727,-8.972 -2.182,-12.733c-1.454,-3.761 -3.528,-6.739 -6.221,-8.932c-2.694,-2.193 -5.893,-3.289 -9.597,-3.289c-3.705,-0 -6.903,1.096 -9.597,3.289c-2.693,2.193 -4.767,5.171 -6.221,8.932c-1.455,3.761 -2.182,8.006 -2.182,12.733c-0,4.727 0.733,8.881 2.199,12.46c1.466,3.58 3.545,6.375 6.238,8.387c2.694,2.011 5.881,3.017 9.563,3.017Z" style="fill-rule:nonzero;"/><path d="M207.714,52.777l-2.318,-0c-0.432,-2.319 -1.273,-4.682 -2.523,-7.091c-1.25,-2.409 -2.909,-4.637 -4.977,-6.682c-2.068,-2.046 -4.511,-3.693 -7.33,-4.943c-2.818,-1.25 -6.011,-1.875 -9.579,-1.875c-4.773,-0 -9.188,1.301 -13.244,3.903c-4.057,2.602 -7.319,6.409 -9.785,11.42c-2.465,5.012 -3.698,11.131 -3.698,18.358c-0,7.319 1.233,13.478 3.698,18.478c2.466,5 5.728,8.784 9.785,11.352c4.056,2.568 8.471,3.852 13.244,3.852c3.568,0 6.761,-0.619 9.579,-1.858c2.819,-1.238 5.262,-2.875 7.33,-4.909c2.068,-2.034 3.727,-4.261 4.977,-6.682c1.25,-2.42 2.091,-4.801 2.523,-7.142l2.318,0c-0.432,2.455 -1.295,5.006 -2.591,7.654c-1.295,2.647 -3.045,5.119 -5.25,7.415c-2.204,2.295 -4.875,4.153 -8.011,5.573c-3.137,1.421 -6.762,2.131 -10.875,2.131c-5.727,0 -10.762,-1.5 -15.102,-4.5c-4.341,-3 -7.728,-7.193 -10.16,-12.579c-2.431,-5.387 -3.647,-11.648 -3.647,-18.785c-0,-7.136 1.216,-13.397 3.647,-18.784c2.432,-5.386 5.819,-9.579 10.16,-12.579c4.34,-3 9.375,-4.5 15.102,-4.5c4.113,-0 7.738,0.704 10.875,2.113c3.136,1.41 5.807,3.256 8.011,5.54c2.205,2.284 3.955,4.75 5.25,7.398c1.296,2.648 2.159,5.222 2.591,7.722Z" style="fill-rule:nonzero;"/><path d="M277.123,52.777l-2.318,-0c-0.432,-2.319 -1.273,-4.682 -2.523,-7.091c-1.25,-2.409 -2.909,-4.637 -4.977,-6.682c-2.068,-2.046 -4.511,-3.693 -7.33,-4.943c-2.818,-1.25 -6.011,-1.875 -9.579,-1.875c-4.773,-0 -9.188,1.301 -13.244,3.903c-4.057,2.602 -7.319,6.409 -9.784,11.42c-2.466,5.012 -3.699,11.131 -3.699,18.358c-0,7.319 1.233,13.478 3.699,18.478c2.465,5 5.727,8.784 9.784,11.352c4.056,2.568 8.471,3.852 13.244,3.852c3.568,0 6.761,-0.619 9.579,-1.858c2.819,-1.238 5.262,-2.875 7.33,-4.909c2.068,-2.034 3.727,-4.261 4.977,-6.682c1.25,-2.42 2.091,-4.801 2.523,-7.142l2.318,0c-0.432,2.455 -1.295,5.006 -2.591,7.654c-1.295,2.647 -3.045,5.119 -5.25,7.415c-2.204,2.295 -4.875,4.153 -8.011,5.573c-3.136,1.421 -6.761,2.131 -10.875,2.131c-5.727,0 -10.761,-1.5 -15.102,-4.5c-4.341,-3 -7.728,-7.193 -10.159,-12.579c-2.432,-5.387 -3.648,-11.648 -3.648,-18.785c-0,-7.136 1.216,-13.397 3.648,-18.784c2.431,-5.386 5.818,-9.579 10.159,-12.579c4.341,-3 9.375,-4.5 15.102,-4.5c4.114,-0 7.739,0.704 10.875,2.113c3.136,1.41 5.807,3.256 8.011,5.54c2.205,2.284 3.955,4.75 5.25,7.398c1.296,2.648 2.159,5.222 2.591,7.722Z" style="fill-rule:nonzero;"/></svg>