<?xml version="1.0" encoding="UTF-8" standalone="no"?><!DOCTYPE svg PUBLIC "-//W3C//DTD SVG 1.1//EN" "http://www.w3.org/Graphics/SVG/1.1/DTD/svg11.dtd"><svg width="100%" height="100%" viewBox="0 0 1182 1182" version="1.1" xmlns="http://www.w3.org/2000/svg" xmlns:xlink="http://www.w3.org/1999/xlink" xml:space="preserve" xmlns:serif="http://www.serif.com/" style="fill-rule:evenodd;clip-rule:evenodd;stroke-linejoin:round;stroke-miterlimit:2;"><circle cx="590.55" cy="590.55" r="590.55" style="fill:#09f;"/><path d="M176.154,293.176l94.11,0l0,568.447l-94.11,0l0,-568.447Zm480.192,158.146c39.321,0.165 72.128,10.297 71.624,12.823l-0.016,84.052c-92.491,-59.089 -161.771,19.669 -42.443,79.057c80.534,43.863 76.314,101.326 74.993,129.294c-13.542,168.591 -227.482,102.507 -227.127,91.863l0.016,-80.757c102.995,70.088 200.234,-10.619 72.021,-82.004c-80.509,-45.003 -79.469,-116.405 -79.469,-116.405c1.577,-97.148 72.938,-118.171 130.401,-117.923Zm276.754,0c39.322,0.165 72.137,10.297 71.633,12.823l-0.017,84.052c-92.491,-59.089 -161.762,19.669 -42.443,79.057c80.535,43.863 76.315,101.326 75.002,129.294c-13.55,168.591 -227.491,102.507 -227.136,91.863l0.017,-80.757c102.994,70.088 200.233,-10.619 72.021,-82.004c-80.51,-45.003 -79.469,-116.405 -79.469,-116.405c1.577,-97.148 72.929,-118.171 130.392,-117.923Zm-574.532,0.875c17.596,-0.157 35.523,4.575 51.336,14.269c50.23,30.8 67.859,121.59 66.555,193.09c1.238,71.501 -16.391,162.299 -66.621,193.099c-42.17,25.854 -99.32,16.391 -125.421,-26.919l0.883,-64.804c19.405,37.315 59.858,27.662 72.533,7.729c12.65,-19.9 18.687,-25.16 20.85,-104.291c-2.163,-79.13 -8.134,-94.01 -20.784,-113.91c-12.675,-19.933 -53.128,-29.586 -72.541,7.729l-0.875,-64.812c16.308,-27.068 44.747,-40.916 74.085,-41.18Z" style="fill:#fff;fill-rule:nonzero;"/></svg>